<svg xmlns="http://www.w3.org/2000/svg" viewBox="0 0 519.7 326.12"><defs><style>.cls-1{font-size:18px;font-family:MicrosoftYaHeiLight, Microsoft YaHei;}.cls-2{letter-spacing:-0.12em;}.cls-3{letter-spacing:-0.12em;}.cls-4{fill:none;stroke:#000;stroke-miterlimit:10;stroke-width:0.5px;}</style></defs><g id="图层_2" data-name="图层 2"><g id="图层_1-2" data-name="图层 1"><text class="cls-1" transform="translate(100 321.41)">S<tspan class="cls-2" x="9.66" y="0">A</tspan><tspan class="cls-3" x="19.77" y="0">T</tspan><tspan x="27.49" y="0">A</tspan></text><text class="cls-1" transform="translate(100 174.41)">S<tspan class="cls-2" x="9.66" y="0">A</tspan><tspan class="cls-3" x="19.77" y="0">T</tspan><tspan x="27.49" y="0">A 3</tspan><tspan x="0" y="21.6">(600MB/s)</tspan></text><text class="cls-1" transform="translate(100 15.41)">AHCI</text><text class="cls-1" transform="translate(0 321.41)">接口</text><text class="cls-1" transform="translate(0 174.41)">总线</text><text class="cls-1" transform="translate(0 15.41)">协议</text><text class="cls-1" transform="translate(249.48 321.41)">M.2</text><text class="cls-1" transform="translate(412.33 321.41)">PCIe</text><text class="cls-1" transform="translate(412.33 174.41)">PCIe<tspan x="0" y="21.6">3.0*4 (4GB/s)</tspan><tspan x="0" y="43.2">4.0*4 (8GB/s)</tspan></text><text class="cls-1" transform="translate(412.33 15.41)">NVMe</text></g><g id="图层_2-2" data-name="图层 2"><line class="cls-4" x1="120.6" y1="292.01" x2="120.6" y2="212.03"/><path d="M120.6,209a15.2,15.2,0,0,0,2.38,4.27l-2.38-.86-2.38.86A15.2,15.2,0,0,0,120.6,209Z"/><line class="cls-4" x1="434.1" y1="292.01" x2="434.1" y2="232.03"/><path d="M434.1,229a15.2,15.2,0,0,0,2.38,4.27l-2.38-.86-2.38.86A15.2,15.2,0,0,0,434.1,229Z"/><line class="cls-4" x1="121.1" y1="146.61" x2="121.1" y2="33.2"/><polygon points="121.1 29.67 123.13 34.64 121.1 33.46 119.07 34.64 121.1 29.67"/><polyline class="cls-4" points="171.81 167.01 216.1 167.01 216.1 316.01 246.4 316.01"/><path d="M168.79,167a14.77,14.77,0,0,1,4.28,2.38l-.86-2.38.86-2.38A15.25,15.25,0,0,1,168.79,167Z"/><polyline class="cls-4" points="285.6 316.01 356.8 316.01 356.8 167.01 401.78 167.01"/><path d="M404.79,167a14.72,14.72,0,0,0-4.27,2.38l.86-2.38-.86-2.38A15.2,15.2,0,0,0,404.79,167Z"/><line class="cls-4" x1="434.8" y1="33.2" x2="434.8" y2="146.61"/><polygon points="434.8 29.67 432.77 34.64 434.8 33.46 436.83 34.64 434.8 29.67"/><line class="cls-4" x1="434.8" y1="91.81" x2="124.63" y2="91.81"/><polygon points="121.1 91.81 126.08 89.78 124.89 91.81 126.08 93.84 121.1 91.81"/></g></g></svg>